<mxfile host="app.diagrams.net" agent="Mozilla/5.0 (Macintosh; Intel Mac OS X 10_15_7) AppleWebKit/537.36 (KHTML, like Gecko) Chrome/131.0.0.0 Safari/537.36" version="26.0.7">
  <diagram name="Page-1" id="kYqLIcHNMrU1wzqXKv6H">
    <mxGraphModel dx="1272" dy="656" grid="0" gridSize="10" guides="1" tooltips="1" connect="1" arrows="1" fold="1" page="0" pageScale="1" pageWidth="850" pageHeight="1100" math="0" shadow="0">
      <root>
        <mxCell id="0" />
        <mxCell id="1" parent="0" />
        <mxCell id="VH4D4ILNZe0VZ_pKSqMK-8" value="John and Jane" style="shape=umlActor;verticalLabelPosition=bottom;verticalAlign=top;html=1;" vertex="1" parent="1">
          <mxGeometry x="-494" y="535" width="68" height="126" as="geometry" />
        </mxCell>
        <mxCell id="VH4D4ILNZe0VZ_pKSqMK-9" value="Check room availability" style="ellipse;whiteSpace=wrap;html=1;" vertex="1" parent="1">
          <mxGeometry x="-318" y="367" width="140" height="70" as="geometry" />
        </mxCell>
        <mxCell id="VH4D4ILNZe0VZ_pKSqMK-11" value="Manage Payments" style="ellipse;whiteSpace=wrap;html=1;" vertex="1" parent="1">
          <mxGeometry x="-318" y="530" width="140" height="70" as="geometry" />
        </mxCell>
        <mxCell id="VH4D4ILNZe0VZ_pKSqMK-19" value="" style="swimlane;startSize=0;" vertex="1" parent="1">
          <mxGeometry x="-373" y="356" width="346" height="440" as="geometry" />
        </mxCell>
        <mxCell id="VH4D4ILNZe0VZ_pKSqMK-13" value="Update reservation details" style="ellipse;whiteSpace=wrap;html=1;" vertex="1" parent="VH4D4ILNZe0VZ_pKSqMK-19">
          <mxGeometry x="185" y="358" width="140" height="70" as="geometry" />
        </mxCell>
        <mxCell id="VH4D4ILNZe0VZ_pKSqMK-12" value="Drop unconfirmed reservations" style="ellipse;whiteSpace=wrap;html=1;" vertex="1" parent="VH4D4ILNZe0VZ_pKSqMK-19">
          <mxGeometry x="93" y="253" width="140" height="70" as="geometry" />
        </mxCell>
        <mxCell id="VH4D4ILNZe0VZ_pKSqMK-10" value="Make reservations" style="ellipse;whiteSpace=wrap;html=1;" vertex="1" parent="VH4D4ILNZe0VZ_pKSqMK-19">
          <mxGeometry x="116" y="93" width="140" height="70" as="geometry" />
        </mxCell>
        <mxCell id="VH4D4ILNZe0VZ_pKSqMK-26" value="&amp;lt;&amp;lt;extend&amp;gt;&amp;gt;" style="html=1;verticalAlign=bottom;endArrow=open;dashed=1;endSize=8;curved=0;rounded=0;fontSize=12;exitX=0.561;exitY=0.013;exitDx=0;exitDy=0;exitPerimeter=0;entryX=0.931;entryY=0.813;entryDx=0;entryDy=0;entryPerimeter=0;" edge="1" parent="VH4D4ILNZe0VZ_pKSqMK-19" source="VH4D4ILNZe0VZ_pKSqMK-13" target="VH4D4ILNZe0VZ_pKSqMK-10">
          <mxGeometry relative="1" as="geometry">
            <mxPoint x="317" y="296" as="sourcePoint" />
            <mxPoint x="237" y="296" as="targetPoint" />
          </mxGeometry>
        </mxCell>
        <mxCell id="VH4D4ILNZe0VZ_pKSqMK-20" value="" style="endArrow=none;html=1;rounded=0;fontSize=12;startSize=8;endSize=8;curved=1;entryX=0;entryY=0.5;entryDx=0;entryDy=0;exitX=0.5;exitY=0;exitDx=0;exitDy=0;exitPerimeter=0;" edge="1" parent="1" source="VH4D4ILNZe0VZ_pKSqMK-8" target="VH4D4ILNZe0VZ_pKSqMK-9">
          <mxGeometry width="50" height="50" relative="1" as="geometry">
            <mxPoint x="-416" y="539" as="sourcePoint" />
            <mxPoint x="-366" y="489" as="targetPoint" />
          </mxGeometry>
        </mxCell>
        <mxCell id="VH4D4ILNZe0VZ_pKSqMK-21" value="" style="endArrow=none;html=1;rounded=0;fontSize=12;startSize=8;endSize=8;curved=1;exitX=0.75;exitY=0.1;exitDx=0;exitDy=0;exitPerimeter=0;" edge="1" parent="1" source="VH4D4ILNZe0VZ_pKSqMK-8" target="VH4D4ILNZe0VZ_pKSqMK-10">
          <mxGeometry width="50" height="50" relative="1" as="geometry">
            <mxPoint x="-415" y="545" as="sourcePoint" />
            <mxPoint x="-365" y="495" as="targetPoint" />
          </mxGeometry>
        </mxCell>
        <mxCell id="VH4D4ILNZe0VZ_pKSqMK-24" value="" style="endArrow=none;html=1;rounded=0;fontSize=12;startSize=8;endSize=8;curved=1;entryX=0.03;entryY=0.246;entryDx=0;entryDy=0;entryPerimeter=0;exitX=0.463;exitY=0.575;exitDx=0;exitDy=0;exitPerimeter=0;" edge="1" parent="1" target="VH4D4ILNZe0VZ_pKSqMK-13">
          <mxGeometry width="50" height="50" relative="1" as="geometry">
            <mxPoint x="-458.996" y="611" as="sourcePoint" />
            <mxPoint x="-182.79999999999993" y="746.3899999999999" as="targetPoint" />
          </mxGeometry>
        </mxCell>
        <mxCell id="VH4D4ILNZe0VZ_pKSqMK-22" value="" style="endArrow=none;html=1;rounded=0;fontSize=12;startSize=8;endSize=8;curved=1;exitX=0.5;exitY=0.5;exitDx=0;exitDy=0;exitPerimeter=0;" edge="1" parent="1" source="VH4D4ILNZe0VZ_pKSqMK-8">
          <mxGeometry width="50" height="50" relative="1" as="geometry">
            <mxPoint x="-422" y="560.07" as="sourcePoint" />
            <mxPoint x="-318" y="560" as="targetPoint" />
          </mxGeometry>
        </mxCell>
        <mxCell id="VH4D4ILNZe0VZ_pKSqMK-25" value="&amp;lt;&amp;lt;include&amp;gt;&amp;gt;" style="endArrow=open;endSize=12;dashed=1;html=1;rounded=0;fontSize=12;curved=1;entryX=0.65;entryY=0.029;entryDx=0;entryDy=0;entryPerimeter=0;" edge="1" parent="1" target="VH4D4ILNZe0VZ_pKSqMK-10">
          <mxGeometry width="160" relative="1" as="geometry">
            <mxPoint x="-178" y="404" as="sourcePoint" />
            <mxPoint x="-18" y="404" as="targetPoint" />
          </mxGeometry>
        </mxCell>
        <mxCell id="VH4D4ILNZe0VZ_pKSqMK-23" value="" style="endArrow=none;html=1;rounded=0;fontSize=12;startSize=8;endSize=8;curved=1;entryX=0.107;entryY=0.286;entryDx=0;entryDy=0;entryPerimeter=0;exitX=0.5;exitY=0.5;exitDx=0;exitDy=0;exitPerimeter=0;" edge="1" parent="1" target="VH4D4ILNZe0VZ_pKSqMK-12">
          <mxGeometry width="50" height="50" relative="1" as="geometry">
            <mxPoint x="-459.9999999999999" y="603" as="sourcePoint" />
            <mxPoint x="-278.31999999999994" y="638.8500000000001" as="targetPoint" />
          </mxGeometry>
        </mxCell>
        <mxCell id="VH4D4ILNZe0VZ_pKSqMK-27" value="&amp;lt;&amp;lt;include&amp;gt;&amp;gt;" style="endArrow=open;endSize=12;dashed=1;html=1;rounded=0;fontSize=12;curved=1;entryX=0.971;entryY=0.414;entryDx=0;entryDy=0;entryPerimeter=0;exitX=0.75;exitY=0.957;exitDx=0;exitDy=0;exitPerimeter=0;" edge="1" parent="1" source="VH4D4ILNZe0VZ_pKSqMK-10" target="VH4D4ILNZe0VZ_pKSqMK-11">
          <mxGeometry width="160" relative="1" as="geometry">
            <mxPoint x="-190" y="529" as="sourcePoint" />
            <mxPoint x="-30" y="529" as="targetPoint" />
          </mxGeometry>
        </mxCell>
      </root>
    </mxGraphModel>
  </diagram>
</mxfile>
